<?xml version="1.0" encoding="iso-8859-1"?>
<!-- Uploaded to: SVG Repo, www.svgrepo.com, Generator: SVG Repo Mixer Tools -->
<!DOCTYPE svg PUBLIC "-//W3C//DTD SVG 1.1//EN" "http://www.w3.org/Graphics/SVG/1.1/DTD/svg11.dtd">
<svg fill="#000000" height="800px" width="800px" version="1.1" id="Capa_1" xmlns="http://www.w3.org/2000/svg" xmlns:xlink="http://www.w3.org/1999/xlink" 
	 viewBox="0 0 456.554 456.554" xml:space="preserve">
<path d="M380.797,239.443h-6.307V220.8h0.908c4.418,0,8-3.582,8-8V77.304c0-3.197-1.879-5.947-4.589-7.228V38.369
	C378.809,17.212,361.597,0,340.44,0H116.114C94.957,0,77.745,17.212,77.745,38.369v31.706c-2.71,1.281-4.589,4.032-4.589,7.228
	V212.8c0,4.418,3.582,8,8,8h0.908v18.644h-6.307c-15.575,0-28.246,12.671-28.246,28.246v106.629
	c0,45.345,36.891,82.235,82.235,82.235h197.062c45.345,0,82.235-36.891,82.235-82.235V267.689
	C409.043,252.115,396.372,239.443,380.797,239.443z M380.797,255.443c6.752,0,12.246,5.494,12.246,12.246v49.932l-18.553-11.695
	v-50.484H380.797z M69.82,336.894c-1.172,0-1.714-0.713-1.961-1.311c-0.202-0.486-0.319-1.164,0.09-1.846l24.426-15.396h271.804
	l24.426,15.396c0.41,0.682,0.292,1.36,0.09,1.846c-0.248,0.598-0.789,1.311-1.961,1.311H69.82z M357.92,352.894
	c-3.434,21.184-22.149,36.91-45.419,36.91H144.053c-22.984,0-41.515-15.674-45.278-36.91H357.92z M367.398,106.397H89.156V85.304
	h278.242V106.397z M89.156,131.997h278.242v25.6H89.156V131.997z M93.745,38.369C93.745,26.035,103.779,16,116.114,16H340.44
	c12.334,0,22.369,10.035,22.369,22.369v30.935H93.745V38.369z M279.477,220.8c4.418,0,8-3.582,8-8s-3.582-8-8-8H89.156v-21.602
	h278.242V204.8h-36.721c-4.418,0-8,3.582-8,8s3.582,8,8,8h27.813v81.541H98.064V220.8H279.477z M75.757,255.443h6.307v50.484
	l-18.553,11.695v-49.932C63.511,260.937,69.004,255.443,75.757,255.443z M326.808,440.554H129.746
	c-36.522,0-66.235-29.713-66.235-66.235V351.76c1.981,0.733,4.109,1.134,6.31,1.134h12.775c1.744,13.459,7.867,25.806,17.705,35.372
	c11.631,11.309,27.169,17.538,43.753,17.538H312.5c32.287,0,58.062-22.73,61.568-52.91h12.665c2.201,0,4.329-0.401,6.31-1.134
	v22.558C393.043,410.841,363.33,440.554,326.808,440.554z"/>
</svg>