<svg id="Layer_2" enable-background="new 0 0 50 50" viewBox="0 0 50 50" xmlns="http://www.w3.org/2000/svg" class="w-6 h-6 hover:text-[#BB0000]"><g><path fill="currentColor" d="m6.16312 6.51528v3.75c0 .55225.44727 1 1 1h3.75c.55273 0 1-.44775 1-1s-.44727-1-1-1h-1.33081c8.59302-8.39063 22.40308-8.33887 30.9187.17578.39061.39061 1.02343.39064 1.41406 0 .39063-.39063.39063-1.02344 0-1.41406-9.29663-9.29664-24.37988-9.34693-33.75195-.17115v-1.34057c0-.55225-.44727-1-1-1s-1 .44775-1 1z"/><path d="m42.83695 44.45278c.55273 0 1-.44775 1-1v-3.75c0-.55225-.44727-1-1-1h-3.75c-.55273 0-1 .44775-1 1s.44727 1 1 1h1.24927c-8.59082 8.41895-22.42334 8.37524-30.94849-.14893-.39063-.39063-1.02344-.39063-1.41406 0s-.39063 1.02344 0 1.41406c4.67871 4.67871 10.82519 7.01807 16.9707 7.01807 6.11255 0 12.22339-2.31873 16.89258-6.94751v1.41431c0 .55224.44726 1 1 1z"/><path fill="currentColor" d="m24.33207 25.92079c.61654.21663 1.36058-.25554 2.21484.90845.57813.78516.49805 1.94971-.18164 2.65137-.40625.41943-.98242.64795-1.52539.63672-.5752-.0083-1.10547-.24609-1.49219-.66992-.37305-.4082-1.00488-.43506-1.41309-.06348-.40723.37305-.43555 1.00537-.06348 1.41309.56812.62085 1.31787 1.04578 2.13086 1.22461v1.64795c0 .55225.44727 1 1 1s1-.44775 1-1v-1.7301c.67358-.1947 1.29492-.54504 1.80078-1.06726 1.36133-1.40576 1.51367-3.65332.35547-5.22803-1.75815-2.39114-3.34176-.98126-4.54395-2.29639-.37598-.41064-.56934-.94092-.54492-1.49414.05148-1.16442 1.05194-2.03666 2.1543-1.98096.55176.02344 1.06348.26221 1.43848.67285.37305.40869 1.00684.43555 1.41309.06299.40723-.37256.43555-1.00537.06348-1.4126-.5769-.63086-1.3208-1.04663-2.13672-1.22363v-1.64697c0-.55225-.44727-1-1-1s-1 .44775-1 1v1.72363c-1.74255.50711-2.8574 2.01852-2.93066 3.71729-.08352 1.89614 1.1525 3.71214 3.26074 4.15453z"/><path d="m25.00003 41.04018c8.8457 0 16.04297-7.19678 16.04297-16.04297 0-8.8457-7.19727-16.04248-16.04297-16.04248s-16.04296 7.19678-16.04296 16.04248c0 8.84619 7.19726 16.04297 16.04296 16.04297zm0-30.08545c7.74316 0 14.04297 6.29932 14.04297 14.04248s-6.2998 14.04297-14.04297 14.04297-14.04297-6.2998-14.04297-14.04297 6.29981-14.04248 14.04297-14.04248z"/></g></svg>